<svg width="211" height="211" viewBox="0 0 211 211" fill="none" xmlns="http://www.w3.org/2000/svg">
<path d="M192.423 211H18.5774C8.32568 211 0 202.674 0 192.423V18.5774C0 8.32568 8.32568 0 18.5774 0H192.423C202.674 0 211 8.32568 211 18.5774V192.423C211 202.674 202.674 211 192.423 211ZM18.5774 5.46761C11.3701 5.46761 5.46761 11.3391 5.46761 18.5774V192.423C5.46761 199.63 11.3391 205.501 18.5464 205.501H192.423C199.63 205.501 205.501 199.63 205.501 192.423V18.5774C205.501 11.3701 199.63 5.49867 192.423 5.49867H18.5774V5.46761Z" fill="#1E1E1E"/>
<path d="M18.5775 2.73389H192.423C201.152 2.73389 208.266 9.81693 208.266 18.5775V192.423C208.266 201.152 201.183 208.235 192.454 208.235H18.5775C9.84799 208.235 2.73389 201.152 2.73389 192.392V18.5775C2.73389 9.84799 9.84799 2.73389 18.5775 2.73389Z" fill="url(#paint0_linear_1_1438)"/>
<path d="M84.5922 45.6047C84.5922 54.9556 77.0122 62.5046 67.6924 62.5046C58.3726 62.5046 50.7925 54.9245 50.7925 45.6047C50.7925 36.2849 58.3726 28.7048 67.6924 28.7048C77.0122 28.7048 84.5922 36.2849 84.5922 45.6047Z" fill="#1E1E1E"/>
<path d="M109.507 127.743L94.5025 72.9429C94.3783 72.539 94.2229 72.1662 94.0676 71.7934C91.5823 64.5551 88.2893 64.6483 83.9401 64.6483H51.4762C47.1269 64.6483 43.865 64.5551 41.3487 71.7934C41.1933 72.1662 41.0069 72.539 40.9137 72.9429L25.9089 127.743C24.6352 132.341 27.3379 137.094 31.9357 138.337C36.5334 139.61 41.2865 136.908 42.5292 132.279L44.331 125.786C44.7038 125.072 45.0144 124.233 45.263 123.301C46.0396 120.474 46.7231 117.491 47.3444 114.82L47.9657 112.583V173.69C47.9657 178.474 51.8179 182.326 56.602 182.326C61.3862 182.326 65.2384 178.474 65.2384 173.69V134.951H70.2089V173.69C70.2089 178.474 74.0611 182.326 78.8453 182.326C83.6294 182.326 87.4816 178.474 87.4816 173.69V112.583L88.1029 114.82C88.6932 117.523 89.4077 120.505 90.1843 123.301C90.4329 124.233 90.7746 125.072 91.1163 125.786L92.8871 132.279C94.1608 136.877 98.8828 139.579 103.481 138.337C108.078 137.063 110.781 132.341 109.538 127.743H109.507Z" fill="#1E1E1E"/>
<path d="M184.905 94.4094L159.617 51.3831C159.617 51.3831 157.722 48.4629 154.398 48.3386C151.074 48.4318 149.179 51.3831 149.179 51.3831L123.86 94.4094C123.86 94.4094 122.493 97.3918 124.171 100.343C125.631 102.922 130.694 102.922 130.694 102.922H178.07C178.07 102.922 183.134 102.922 184.594 100.343C186.271 97.3918 184.905 94.4094 184.905 94.4094Z" fill="#1E1E1E"/>
<path d="M123.86 116.59L149.179 159.617C149.179 159.617 151.074 162.537 154.398 162.661C157.722 162.537 159.617 159.617 159.617 159.617L184.905 116.59C184.905 116.59 186.271 113.608 184.594 110.657C183.134 108.078 178.07 108.078 178.07 108.078H130.694C130.694 108.078 125.631 108.078 124.171 110.657C122.493 113.608 123.86 116.59 123.86 116.59Z" fill="#1E1E1E"/>
<defs>
<linearGradient id="paint0_linear_1_1438" x1="105.5" y1="2.73389" x2="105.5" y2="208.266" gradientUnits="userSpaceOnUse">
<stop stop-color="#A3A3A3"/>
<stop offset="0.04" stop-color="#AAAAAA"/>
<stop offset="0.27" stop-color="#D8D8D8"/>
<stop offset="0.45" stop-color="#F4F4F4"/>
<stop offset="0.55" stop-color="white"/>
<stop offset="1" stop-color="#A3A3A3"/>
</linearGradient>
</defs>
</svg>
