<svg width="20" height="18" viewBox="0 0 20 18" fill="none" xmlns="http://www.w3.org/2000/svg">
<path fill-rule="evenodd" clip-rule="evenodd" d="M7.49207 4.3822C6.3185 4.57882 5.4635 5.54251 5.3235 6.68897L4.28564 15.2307H15.7142L14.6742 6.6772C14.5356 5.53628 13.6885 4.57466 12.5214 4.37666C10.7714 4.07966 9.31279 4.07689 7.49207 4.3822ZM8.3785 7.37159C8.39725 7.19173 8.34267 7.01189 8.22643 6.87052C8.11019 6.72915 7.9415 6.63746 7.75643 6.61503C7.57136 6.59261 7.38458 6.64124 7.23601 6.75053C7.08744 6.85982 6.98887 7.02109 6.96136 7.19989L6.31493 12.2108C6.30089 12.3021 6.30582 12.3952 6.32943 12.4846C6.35304 12.574 6.39486 12.6579 6.45243 12.7315C6.51 12.805 6.58215 12.8666 6.66465 12.9127C6.74715 12.9588 6.83832 12.9884 6.93281 12.9999C7.0273 13.0113 7.12319 13.0043 7.21486 12.9794C7.30652 12.9544 7.39211 12.9118 7.46657 12.8543C7.54104 12.7968 7.60289 12.7254 7.64849 12.6444C7.69408 12.5634 7.7225 12.4743 7.73207 12.3825L8.3785 7.37159Z" fill="black"/>
<path fill-rule="evenodd" clip-rule="evenodd" d="M8.90986 5.59166C9.2257 5.809 9.47485 6.10525 9.63081 6.44891C9.78677 6.79256 9.84371 7.17076 9.79558 7.54328L9.14986 12.5542C9.08272 13.0734 8.82415 13.5234 8.44986 13.846H14.107L13.2556 6.8392C13.1827 6.23689 12.7527 5.82151 12.2756 5.74051C11.082 5.53835 10.0541 5.48643 8.90986 5.59166ZM14.6741 6.6772C14.5356 5.53628 13.6884 4.57466 12.5213 4.37666C10.7713 4.07966 9.31272 4.07689 7.492 4.3822C6.31843 4.57882 5.46343 5.54251 5.32343 6.68897L4.28557 15.2307H15.7141L14.6741 6.6772ZM8.37843 7.37159L7.732 12.3825C7.72243 12.4743 7.69401 12.5634 7.64842 12.6444C7.60282 12.7254 7.54097 12.7968 7.4665 12.8543C7.39204 12.9118 7.30645 12.9544 7.21479 12.9794C7.12312 13.0043 7.02723 13.0113 6.93274 12.9999C6.83825 12.9884 6.74708 12.9588 6.66458 12.9127C6.58208 12.8666 6.50993 12.805 6.45236 12.7315C6.39479 12.6579 6.35297 12.574 6.32936 12.4846C6.30575 12.3952 6.30082 12.3021 6.31486 12.2108L6.96129 7.19989C6.97086 7.10807 6.99928 7.01902 7.04487 6.93799C7.09047 6.85697 7.15232 6.7856 7.22679 6.72808C7.30125 6.67055 7.38684 6.62805 7.4785 6.60305C7.57017 6.57805 7.66606 6.57107 7.76055 6.58252C7.85504 6.59397 7.94621 6.62361 8.02871 6.66971C8.11121 6.71581 8.18336 6.77743 8.24093 6.85094C8.2985 6.92446 8.34032 7.00839 8.36393 7.0978C8.38755 7.18721 8.39248 7.2803 8.37843 7.37159ZM16.4284 17.9999H3.57129V16.6153H16.4284V17.9999Z" fill="black"/>
<path d="M2.14286 9.69231C2.14286 9.92562 2.15357 10.1562 2.175 10.3846H0V9H2.175C2.15357 9.22846 2.14286 9.459 2.14286 9.69231ZM3.58 5.30031C3.30452 5.67808 3.06519 6.07944 2.865 6.49939L0.982857 5.44569L1.69714 4.24662L3.58 5.30031ZM6.705 2.77615C6.27 2.97208 5.85643 3.20469 5.46929 3.46985L4.38143 1.64492L5.61857 0.952616L6.705 2.77685V2.77615ZM10 2.07692C9.75929 2.07692 9.52143 2.08731 9.28571 2.10808V0H10.7143V2.10808C10.4768 2.08735 10.2385 2.07696 10 2.07692ZM14.5314 3.46985C14.1416 3.20287 13.7275 2.97091 13.2943 2.77685L14.3814 0.952616L15.6186 1.64492L14.5314 3.46985ZM17.1357 6.49869C16.9352 6.0792 16.6957 5.67831 16.42 5.301L18.3029 4.24662L19.0171 5.44569L17.135 6.49869H17.1357ZM17.8571 9.69231C17.8571 9.459 17.8464 9.22846 17.825 9H20V10.3846H17.825C17.8464 10.1562 17.8571 9.92562 17.8571 9.69231Z" fill="black"/>
</svg>
