<svg width="24" height="24" viewBox="0 0 24 24" fill="none" xmlns="http://www.w3.org/2000/svg">
<path d="M23.7202 12.2231C23.9021 12.0262 24.0026 11.7626 23.9999 11.4891C23.9973 11.2157 23.8918 10.9542 23.7061 10.7611C23.5204 10.568 23.2695 10.4587 23.0072 10.4567C22.745 10.4548 22.4926 10.5603 22.3042 10.7505L12.0122 21.5217L1.72023 10.7505C1.62812 10.6508 1.51788 10.5712 1.39595 10.5164C1.27402 10.4615 1.14285 10.4326 1.01007 10.4312C0.877302 10.4298 0.745594 10.456 0.622631 10.5082C0.499668 10.5605 0.387917 10.6378 0.293894 10.7356C0.199871 10.8333 0.125463 10.9497 0.0750084 11.0778C0.0245533 11.2058 -0.000934601 11.3431 2.67029e-05 11.4816C0.000988007 11.6201 0.0283833 11.757 0.0806122 11.8843C0.132841 12.0116 0.208858 12.1268 0.30423 12.2231L11.2322 23.6617C11.3345 23.7689 11.456 23.854 11.5899 23.9121C11.7237 23.9701 11.8673 24 12.0122 24C12.1572 24 12.3007 23.9701 12.4346 23.9121C12.5685 23.854 12.69 23.7689 12.7922 23.6617L23.7202 12.2231ZM23.7202 1.79198C23.9021 1.59503 24.0026 1.33143 23.9999 1.05798C23.9973 0.784525 23.8918 0.523096 23.7061 0.329998C23.5204 0.136902 23.2695 0.0275898 23.0072 0.0256081C22.745 0.0236263 22.4926 0.129133 22.3042 0.319405L12.0122 11.0926L1.72023 0.319405C1.62812 0.219669 1.51788 0.140064 1.39595 0.0852337C1.27402 0.0304031 1.14285 0.00144577 1.01007 5.14984e-05C0.877302 -0.00134468 0.745594 0.0248508 0.622631 0.0771084C0.499668 0.129364 0.387917 0.206636 0.293894 0.304417C0.199871 0.402195 0.125463 0.518524 0.0750084 0.646614C0.0245533 0.774702 -0.000934601 0.911989 2.67029e-05 1.05046C0.000988007 1.18893 0.0283833 1.32582 0.0806122 1.45313C0.132841 1.58045 0.208858 1.69564 0.30423 1.79198L11.2322 13.2306C11.3345 13.3378 11.456 13.4229 11.5899 13.4809C11.7237 13.539 11.8673 13.5689 12.0122 13.5689C12.1572 13.5689 12.3007 13.539 12.4346 13.4809C12.5685 13.4229 12.69 13.3378 12.7922 13.2306L23.7202 1.79198Z" fill="#4F48EC"/>
</svg>
