<svg width="18" height="18" viewBox="0 0 18 18" fill="none" xmlns="http://www.w3.org/2000/svg">
<path d="M13.5002 10.245V6.7425C13.5002 5.9925 12.7427 5.2425 12.0002 5.25V3C12.0002 2.5875 11.6627 2.25 11.2502 2.25C10.8377 2.25 10.5002 2.5875 10.5002 3V5.25H7.59021L13.3127 10.9725C13.4252 10.7475 13.5002 10.5 13.5002 10.245ZM7.50021 3C7.50021 2.5875 7.16271 2.25 6.75021 2.25C6.33771 2.25 6.00021 2.5875 6.00021 3V3.66L7.50021 5.16V3ZM15.1127 14.895L9.36771 9.15L5.54271 5.325L3.62271 3.405C3.55327 3.33556 3.47084 3.28048 3.38011 3.2429C3.28939 3.20533 3.19215 3.18598 3.09396 3.18598C2.99576 3.18598 2.89852 3.20533 2.8078 3.2429C2.71708 3.28048 2.63464 3.33556 2.56521 3.405C2.49577 3.47444 2.44069 3.55687 2.40311 3.64759C2.36553 3.73832 2.34619 3.83555 2.34619 3.93375C2.34619 4.03195 2.36553 4.12918 2.40311 4.21991C2.44069 4.31063 2.49577 4.39306 2.56521 4.4625L4.53771 6.435C4.51521 6.5325 4.50021 6.6375 4.50021 6.7425V10.2375C4.50021 10.635 4.65771 11.0175 4.93521 11.295L7.12521 13.5V15C7.12521 15.4125 7.46271 15.75 7.87521 15.75H10.1252C10.5377 15.75 10.8752 15.4125 10.8752 15V13.5L11.2352 13.14L14.0552 15.96C14.3477 16.2525 14.8202 16.2525 15.1127 15.96C15.4052 15.6675 15.4052 15.1875 15.1127 14.895Z" fill="black"/>
</svg>
