<svg width="24" height="24" viewBox="0 0 24 24" fill="none" xmlns="http://www.w3.org/2000/svg">
<path d="M0.27977 11.7769C0.0978612 11.9738 -0.002591 12.2374 5.08187e-05 12.5109C0.00269264 12.7843 0.108217 13.0458 0.293894 13.2389C0.479571 13.432 0.730545 13.5413 0.992754 13.5433C1.25496 13.5452 1.50743 13.4397 1.69577 13.2495L11.9878 2.47833L22.2798 13.2495C22.3719 13.3492 22.4821 13.4288 22.604 13.4836C22.726 13.5385 22.8572 13.5674 22.9899 13.5688C23.1227 13.5702 23.2544 13.544 23.3774 13.4918C23.5003 13.4395 23.6121 13.3622 23.7061 13.2644C23.8001 13.1667 23.8745 13.0503 23.925 12.9222C23.9754 12.7942 24.0009 12.6569 24 12.5184C23.999 12.3799 23.9716 12.243 23.9194 12.1157C23.8672 11.9884 23.7911 11.8732 23.6958 11.7769L12.7678 0.338289C12.6655 0.231079 12.544 0.145999 12.4101 0.0879433C12.2763 0.0298875 12.1327 0 11.9878 0C11.8428 0 11.6993 0.0298875 11.5654 0.0879433C11.4315 0.145999 11.31 0.231079 11.2078 0.338289L0.27977 11.7769ZM0.27977 22.208C0.0978612 22.405 -0.002591 22.6686 5.08187e-05 22.942C0.00269264 23.2155 0.108217 23.4769 0.293894 23.67C0.479571 23.8631 0.730545 23.9724 0.992754 23.9744C1.25496 23.9764 1.50743 23.8709 1.69577 23.6806L11.9878 12.9074L22.2798 23.6806C22.3719 23.7803 22.4821 23.8599 22.604 23.9148C22.726 23.9696 22.8572 23.9986 22.9899 23.9999C23.1227 24.0013 23.2544 23.9751 23.3774 23.9229C23.5003 23.8706 23.6121 23.7934 23.7061 23.6956C23.8001 23.5978 23.8745 23.4815 23.925 23.3534C23.9754 23.2253 24.0009 23.088 24 22.9495C23.999 22.8111 23.9716 22.6742 23.9194 22.5469C23.8672 22.4196 23.7911 22.3044 23.6958 22.208L12.7678 10.7694C12.6655 10.6622 12.544 10.5771 12.4101 10.5191C12.2763 10.461 12.1327 10.4311 11.9878 10.4311C11.8428 10.4311 11.6993 10.461 11.5654 10.5191C11.4315 10.5771 11.31 10.6622 11.2078 10.7694L0.27977 22.208Z" fill="#4F48EC"/>
</svg>
