<svg width="26" height="24" viewBox="0 0 26 24" fill="none" xmlns="http://www.w3.org/2000/svg">
<path fill-rule="evenodd" clip-rule="evenodd" d="M9.73965 5.84309C8.214 6.10524 7.1025 7.39016 6.9205 8.91878L5.57129 20.3077H20.4284L19.0764 8.90309C18.8963 7.38186 17.795 6.0997 16.2777 5.8357C14.0027 5.4397 12.1066 5.43601 9.73965 5.84309ZM10.892 9.82893C10.9164 9.58912 10.8454 9.34934 10.6943 9.16085C10.5432 8.97235 10.3239 8.85009 10.0833 8.8202C9.84272 8.7903 9.5999 8.85514 9.40676 9.00086C9.21362 9.14658 9.08548 9.36161 9.04972 9.60001L8.20936 16.2812C8.1911 16.403 8.19751 16.5271 8.22821 16.6463C8.25891 16.7655 8.31327 16.8774 8.38811 16.9754C8.46295 17.0735 8.55675 17.1556 8.664 17.2171C8.77124 17.2785 8.88977 17.3181 9.0126 17.3333C9.13544 17.3486 9.2601 17.3393 9.37927 17.306C9.49843 17.2726 9.60969 17.2159 9.7065 17.1393C9.80331 17.0626 9.88371 16.9674 9.94299 16.8594C10.0023 16.7513 10.0392 16.6326 10.0516 16.5102L10.892 9.82893Z" fill="black"/>
<path fill-rule="evenodd" clip-rule="evenodd" d="M11.5832 7.4557C11.9938 7.74549 12.3177 8.14049 12.5204 8.59869C12.7232 9.0569 12.7972 9.56116 12.7346 10.0579L11.8952 16.7391C11.8079 17.4314 11.4718 18.0314 10.9852 18.4615H18.3395L17.2326 9.11909C17.1379 8.31601 16.5789 7.76216 15.9586 7.65416C14.407 7.38462 13.0708 7.31539 11.5832 7.4557ZM19.0768 8.90309C18.8966 7.38186 17.7954 6.0997 16.2781 5.8357C14.0031 5.4397 12.1069 5.43601 9.74 5.84309C8.21435 6.10524 7.10285 7.39016 6.92085 8.91878L5.57164 20.3077H20.4288L19.0768 8.90309ZM10.8924 9.82893L10.052 16.5102C10.0396 16.6326 10.0026 16.7513 9.94333 16.8594C9.88406 16.9674 9.80366 17.0626 9.70685 17.1393C9.61004 17.2159 9.49878 17.2726 9.37962 17.306C9.26045 17.3393 9.13579 17.3486 9.01295 17.3333C8.89012 17.3181 8.77159 17.2785 8.66435 17.2171C8.5571 17.1556 8.4633 17.0735 8.38846 16.9754C8.31362 16.8774 8.25926 16.7655 8.22856 16.6463C8.19786 16.5271 8.19145 16.403 8.20971 16.2812L9.05007 9.60001C9.06251 9.47757 9.09945 9.35885 9.15873 9.25081C9.218 9.14278 9.2984 9.04761 9.39521 8.97092C9.49202 8.89423 9.60328 8.83755 9.72245 8.80422C9.84161 8.77089 9.96627 8.76158 10.0891 8.77685C10.2119 8.79211 10.3305 8.83164 10.4377 8.8931C10.545 8.95456 10.6388 9.03672 10.7136 9.13474C10.7884 9.23277 10.8428 9.34468 10.8735 9.46389C10.9042 9.58311 10.9106 9.70722 10.8924 9.82893ZM21.3574 24H4.64307V22.1539H21.3574V24Z" fill="black"/>
<path d="M2.78571 12.9231C2.78571 13.2342 2.79964 13.5415 2.8275 13.8462H0V12H2.8275C2.79964 12.3046 2.78571 12.612 2.78571 12.9231ZM4.654 7.06708C4.29587 7.57077 3.98475 8.10592 3.7245 8.66585L1.27771 7.26092L2.20629 5.66215L4.654 7.06708ZM8.7165 3.70154C8.151 3.96277 7.61336 4.27292 7.11007 4.62646L5.69586 2.19323L7.30414 1.27015L8.7165 3.70246V3.70154ZM13 2.76923C12.6871 2.76923 12.3779 2.78308 12.0714 2.81077V0H13.9286V2.81077C13.6198 2.78314 13.31 2.76928 13 2.76923ZM18.8909 4.62646C18.3841 4.27049 17.8458 3.96121 17.2826 3.70246L18.6959 1.27015L20.3041 2.19323L18.8909 4.62646ZM22.2764 8.66492C22.0158 8.1056 21.7043 7.57107 21.346 7.068L23.7937 5.66215L24.7223 7.26092L22.2755 8.66492H22.2764ZM23.2143 12.9231C23.2143 12.612 23.2004 12.3046 23.1725 12H26V13.8462H23.1725C23.2004 13.5415 23.2143 13.2342 23.2143 12.9231Z" fill="black"/>
</svg>
