<svg width="88" height="88" viewBox="0 0 88 88" fill="none" xmlns="http://www.w3.org/2000/svg">
<path d="M66 50.0867V32.9633C66 29.2967 62.2966 25.63 58.6666 25.6667V14.6667C58.6666 12.65 57.0166 11 55 11C52.9833 11 51.3333 12.65 51.3333 14.6667V25.6667H37.1066L65.0833 53.6433C65.6333 52.5433 66 51.3333 66 50.0867ZM36.6666 14.6667C36.6666 12.65 35.0166 11 33 11C30.9833 11 29.3333 12.65 29.3333 14.6667V17.8933L36.6666 25.2267V14.6667ZM73.8833 72.82L45.7966 44.7333L27.0966 26.0333L17.71 16.6467C17.3705 16.3072 16.9675 16.0379 16.524 15.8542C16.0804 15.6705 15.6051 15.5759 15.125 15.5759C14.6449 15.5759 14.1695 15.6705 13.726 15.8542C13.2825 16.0379 12.8794 16.3072 12.54 16.6467C12.2005 16.9861 11.9312 17.3891 11.7475 17.8327C11.5638 18.2762 11.4692 18.7516 11.4692 19.2317C11.4692 19.7117 11.5638 20.1871 11.7475 20.6307C11.9312 21.0742 12.2005 21.4772 12.54 21.8167L22.1833 31.46C22.0733 31.9367 22 32.45 22 32.9633V50.05C22 51.9933 22.77 53.8633 24.1266 55.22L34.8333 66V73.3333C34.8333 75.35 36.4833 77 38.5 77H49.5C51.5166 77 53.1666 75.35 53.1666 73.3333V66L54.9266 64.24L68.7133 78.0267C70.1433 79.4567 72.4533 79.4567 73.8833 78.0267C75.3133 76.5967 75.3133 74.25 73.8833 72.82Z" fill="#DB3654"/>
</svg>
