<svg width="88" height="88" viewBox="0 0 88 88" fill="none" xmlns="http://www.w3.org/2000/svg">
<path d="M30.8 62.3333L44 49.1333L57.2 62.3333L62.3333 57.2L49.1333 44L62.3333 30.8L57.2 25.6667L44 38.8667L30.8 25.6667L25.6667 30.8L38.8667 44L25.6667 57.2L30.8 62.3333ZM18.3333 77C16.3167 77 14.5897 76.2826 13.1523 74.8477C11.7174 73.4103 11 71.6833 11 69.6667V18.3333C11 16.3167 11.7174 14.5897 13.1523 13.1523C14.5897 11.7174 16.3167 11 18.3333 11H69.6667C71.6833 11 73.4103 11.7174 74.8477 13.1523C76.2826 14.5897 77 16.3167 77 18.3333V69.6667C77 71.6833 76.2826 73.4103 74.8477 74.8477C73.4103 76.2826 71.6833 77 69.6667 77H18.3333Z" fill="#DB3654"/>
</svg>
