<svg width="25" height="27" viewBox="0 0 25 27" fill="none" xmlns="http://www.w3.org/2000/svg">
<path d="M5.20831 3.375H11.4583C12.2871 3.375 13.082 3.73058 13.668 4.36351C14.2541 4.99645 14.5833 5.85489 14.5833 6.75V11.25H13.5416V6.75C13.5416 6.15326 13.3222 5.58097 12.9315 5.15901C12.5408 4.73705 12.0108 4.5 11.4583 4.5H5.20831C4.65578 4.5 4.12587 4.73705 3.73517 5.15901C3.34447 5.58097 3.12498 6.15326 3.12498 6.75V21.375C3.12498 21.9717 3.34447 22.544 3.73517 22.966C4.12587 23.3879 4.65578 23.625 5.20831 23.625H11.4583C12.0108 23.625 12.5408 23.3879 12.9315 22.966C13.3222 22.544 13.5416 21.9717 13.5416 21.375V16.875H14.5833V21.375C14.5833 22.2701 14.2541 23.1285 13.668 23.7615C13.082 24.3944 12.2871 24.75 11.4583 24.75H5.20831C4.37951 24.75 3.58466 24.3944 2.9986 23.7615C2.41255 23.1285 2.08331 22.2701 2.08331 21.375V6.75C2.08331 5.85489 2.41255 4.99645 2.9986 4.36351C3.58466 3.73058 4.37951 3.375 5.20831 3.375ZM8.33331 13.5H20.0521L16.6666 9.84375L17.3583 9L22.0458 14.0625L17.3583 19.125L16.6666 18.2812L20.0521 14.625H8.33331V13.5Z" fill="black"/>
</svg>
