<svg width="24" height="24" viewBox="0 0 24 24" fill="none" xmlns="http://www.w3.org/2000/svg">
<path d="M18 13.66V8.99C18 7.99 16.99 6.99 16 7V4C16 3.45 15.55 3 15 3C14.45 3 14 3.45 14 4V7H10.12L17.75 14.63C17.9 14.33 18 14 18 13.66ZM9.99995 4C9.99995 3.45 9.54995 3 8.99995 3C8.44995 3 7.99995 3.45 7.99995 4V4.88L9.99995 6.88V4ZM20.15 19.86L12.49 12.2L7.38995 7.1L4.82995 4.54C4.73737 4.44742 4.62746 4.37398 4.50649 4.32387C4.38553 4.27377 4.25588 4.24798 4.12495 4.24798C3.99402 4.24798 3.86437 4.27377 3.74341 4.32387C3.62244 4.37398 3.51253 4.44742 3.41995 4.54C3.32737 4.63258 3.25393 4.74249 3.20382 4.86346C3.15372 4.98442 3.12793 5.11407 3.12793 5.245C3.12793 5.37593 3.15372 5.50558 3.20382 5.62654C3.25393 5.74751 3.32737 5.85742 3.41995 5.95L6.04995 8.58C6.01995 8.71 5.99995 8.85 5.99995 8.99V13.65C5.99995 14.18 6.20995 14.69 6.57995 15.06L9.49995 18V20C9.49995 20.55 9.94995 21 10.5 21H13.5C14.05 21 14.5 20.55 14.5 20V18L14.9799 17.52L18.74 21.28C19.1299 21.67 19.76 21.67 20.15 21.28C20.5399 20.89 20.5399 20.25 20.15 19.86Z" fill="black"/>
</svg>
