<svg width="90" height="88" viewBox="0 0 90 88" fill="none" xmlns="http://www.w3.org/2000/svg">
<path fill-rule="evenodd" clip-rule="evenodd" d="M33.7146 21.4246C28.4335 22.3858 24.586 27.0972 23.956 32.7021L19.2856 74.4615H70.7142L66.0342 32.6446C65.4106 27.0668 61.5985 22.3655 56.3464 21.3975C48.4714 19.9455 41.9078 19.932 33.7146 21.4246ZM37.7035 36.0394C37.7879 35.1601 37.5423 34.2809 37.0192 33.5897C36.4961 32.8986 35.737 32.4503 34.9042 32.3407C34.0714 32.2311 33.2308 32.4688 32.5623 33.0031C31.8937 33.5374 31.4501 34.3259 31.3264 35.2L28.4174 59.6978C28.3542 60.1441 28.3764 60.5992 28.4827 61.0363C28.5889 61.4734 28.7771 61.8838 29.0362 62.2432C29.2952 62.6026 29.6199 62.9039 29.9912 63.1292C30.3624 63.3546 30.7727 63.4995 31.1979 63.5555C31.6231 63.6114 32.0546 63.5773 32.4671 63.4551C32.8796 63.3329 33.2647 63.1251 33.5998 62.8439C33.9349 62.5627 34.2133 62.2137 34.4184 61.8176C34.6236 61.4215 34.7515 60.9861 34.7946 60.5372L37.7035 36.0394V36.0394Z" fill="#DB3654"/>
<path fill-rule="evenodd" clip-rule="evenodd" d="M40.0951 27.3375C41.5164 28.4001 42.6376 29.8484 43.3394 31.5285C44.0412 33.2086 44.2974 35.0575 44.0808 36.8788L41.1751 61.3766C40.873 63.9151 39.7094 66.1151 38.0251 67.6923H63.4822L59.6508 33.4366C59.323 30.492 57.388 28.4612 55.2408 28.0652C49.8697 27.0769 45.2444 26.8231 40.0951 27.3375V27.3375ZM66.0344 32.6446C65.4108 27.0668 61.5987 22.3655 56.3465 21.3975C48.4715 19.9455 41.908 19.932 33.7147 21.4246C28.4337 22.3858 24.5862 27.0972 23.9562 32.7021L19.2858 74.4615H70.7144L66.0344 32.6446V32.6446ZM37.7037 36.0394L34.7947 60.5372C34.7517 60.9861 34.6238 61.4215 34.4186 61.8176C34.2134 62.2137 33.9351 62.5627 33.6 62.8439C33.2649 63.1251 32.8798 63.3329 32.4673 63.4551C32.0548 63.5773 31.6233 63.6114 31.1981 63.5555C30.7729 63.4995 30.3626 63.3546 29.9913 63.1292C29.6201 62.9039 29.2954 62.6026 29.0364 62.2432C28.7773 61.8838 28.5891 61.4734 28.4829 61.0363C28.3766 60.5992 28.3544 60.1441 28.4176 59.6978L31.3265 35.2C31.3696 34.7511 31.4975 34.3157 31.7027 33.9196C31.9078 33.5235 32.1862 33.1745 32.5213 32.8933C32.8564 32.6121 33.2415 32.4043 33.654 32.2821C34.0665 32.1599 34.498 32.1258 34.9232 32.1817C35.3484 32.2377 35.7587 32.3826 36.1299 32.608C36.5012 32.8333 36.8259 33.1346 37.0849 33.494C37.344 33.8534 37.5322 34.2638 37.6384 34.7009C37.7447 35.138 37.7669 35.5931 37.7037 36.0394V36.0394ZM73.9287 88H16.0715V81.2308H73.9287V88Z" fill="#DB3654"/>
<path d="M9.64286 47.3846C9.64286 48.5252 9.69107 49.6523 9.7875 50.7692H0V44H9.7875C9.69107 45.1169 9.64286 46.244 9.64286 47.3846ZM16.11 25.9126C14.8703 27.7595 13.7934 29.7217 12.8925 31.7748L4.42286 26.6234L7.63714 20.7612L16.11 25.9126ZM30.1725 13.5723C28.215 14.5302 26.3539 15.6674 24.6118 16.9637L19.7164 8.04185L25.2836 4.65723L30.1725 13.5757V13.5723ZM45 10.1538C43.9168 10.1538 42.8464 10.2046 41.7857 10.3062V0H48.2143V10.3062C47.1456 10.2048 46.0731 10.154 45 10.1538V10.1538ZM65.3914 16.9637C63.6374 15.6585 61.774 14.5244 59.8243 13.5757L64.7164 4.65723L70.2836 8.04185L65.3914 16.9637ZM77.1107 31.7714C76.2085 29.7205 75.1304 27.7606 73.89 25.916L82.3629 20.7612L85.5771 26.6234L77.1075 31.7714H77.1107ZM80.3571 47.3846C80.3571 46.244 80.3089 45.1169 80.2125 44H90V50.7692H80.2125C80.3089 49.6523 80.3571 48.5252 80.3571 47.3846Z" fill="#DB3654"/>
</svg>
