<svg width="18" height="18" viewBox="0 0 18 18" fill="none" xmlns="http://www.w3.org/2000/svg">
<path d="M9 11.25C10.2426 11.25 11.25 10.2426 11.25 9C11.25 7.75736 10.2426 6.75 9 6.75C7.75736 6.75 6.75 7.75736 6.75 9C6.75 10.2426 7.75736 11.25 9 11.25Z" fill="black" fill-opacity="0.5"/>
<path d="M17.2563 8.38828C16.3261 6.94969 15.1192 5.72766 13.7663 4.85402C12.2697 3.88652 10.6174 3.375 8.98826 3.375C7.49342 3.375 6.02353 3.80215 4.61939 4.64449C3.18748 5.50336 1.89021 6.75809 0.763455 8.37352C0.636254 8.55608 0.5662 8.77235 0.562194 8.99482C0.558187 9.2173 0.62041 9.43594 0.740955 9.62297C1.66943 11.076 2.86439 12.2998 4.19611 13.1614C5.69553 14.1328 7.3092 14.625 8.98826 14.625C10.6304 14.625 12.2863 14.1177 13.7765 13.1583C15.1287 12.2875 16.3331 11.0609 17.2598 9.61031C17.3762 9.42763 17.4377 9.21539 17.4371 8.99878C17.4365 8.78217 17.3737 8.57029 17.2563 8.38828ZM9.00021 12.375C8.3327 12.375 7.68018 12.1771 7.12516 11.8062C6.57015 11.4354 6.13757 10.9083 5.88212 10.2916C5.62667 9.67486 5.55984 8.99626 5.69006 8.34157C5.82029 7.68688 6.14173 7.08552 6.61373 6.61351C7.08573 6.14151 7.6871 5.82008 8.34178 5.68985C8.99647 5.55962 9.67507 5.62646 10.2918 5.88191C10.9085 6.13735 11.4356 6.56993 11.8064 7.12495C12.1773 7.67997 12.3752 8.33249 12.3752 9C12.3742 9.89479 12.0183 10.7526 11.3856 11.3854C10.7529 12.0181 9.895 12.374 9.00021 12.375Z" fill="black" fill-opacity="0.5"/>
</svg>
