<svg width="25" height="27" viewBox="0 0 25 27" fill="none" xmlns="http://www.w3.org/2000/svg">
<path d="M5.2085 3.375H11.4585C12.2873 3.375 13.0822 3.73058 13.6682 4.36351C14.2543 4.99645 14.5835 5.85489 14.5835 6.75V11.25H13.5418V6.75C13.5418 6.15326 13.3223 5.58097 12.9316 5.15901C12.5409 4.73705 12.011 4.5 11.4585 4.5H5.2085C4.65596 4.5 4.12606 4.73705 3.73536 5.15901C3.34466 5.58097 3.12516 6.15326 3.12516 6.75V21.375C3.12516 21.9717 3.34466 22.544 3.73536 22.966C4.12606 23.3879 4.65596 23.625 5.2085 23.625H11.4585C12.011 23.625 12.5409 23.3879 12.9316 22.966C13.3223 22.544 13.5418 21.9717 13.5418 21.375V16.875H14.5835V21.375C14.5835 22.2701 14.2543 23.1285 13.6682 23.7615C13.0822 24.3944 12.2873 24.75 11.4585 24.75H5.2085C4.37969 24.75 3.58484 24.3944 2.99879 23.7615C2.41274 23.1285 2.0835 22.2701 2.0835 21.375V6.75C2.0835 5.85489 2.41274 4.99645 2.99879 4.36351C3.58484 3.73058 4.37969 3.375 5.2085 3.375ZM8.3335 13.5H20.0522L16.6668 9.84375L17.3585 9L22.046 14.0625L17.3585 19.125L16.6668 18.2812L20.0522 14.625H8.3335V13.5Z" fill="black"/>
</svg>
