<svg width="32" height="32" viewBox="0 0 32 32" fill="none" xmlns="http://www.w3.org/2000/svg">
<path d="M16 4C14.708 4 13.606 4.844 13.187 6H12C9.255 6 7 8.255 7 11H9C9 9.345 10.345 8 12 8H13V10.47C12.68 10.707 12.267 11.045 11.78 11.53C10.954 12.36 10 13.5 10 15V28H22V15C22 13.5 21.047 12.36 20.22 11.53C19.733 11.045 19.32 10.707 19 10.47V10.187L23.844 11L25 11.188V4.812L23.844 5L18.75 5.844C18.292 4.77 17.234 4 16 4ZM16 6C16.555 6 17 6.445 17 7V10H15V7C15 6.445 15.445 6 16 6ZM23 7.188V8.813L19 8.125V7.875L23 7.187V7.188ZM14.375 12H17.625C17.775 12.105 18.203 12.39 18.781 12.97C19.454 13.64 20.001 14.5 20.001 15V26H12.001V15C12.001 14.5 12.548 13.64 13.221 12.97C13.798 12.39 14.225 12.105 14.376 12H14.375ZM14 17V19H18V17H14Z" fill="black"/>
</svg>
