<svg width="24" height="24" viewBox="0 0 24 24" fill="none" xmlns="http://www.w3.org/2000/svg">
<path fill-rule="evenodd" clip-rule="evenodd" d="M8.25 3C8.44891 3 8.63968 3.07902 8.78033 3.21967C8.92098 3.36032 9 3.55109 9 3.75V7.25C9 7.71413 8.81563 8.15925 8.48744 8.48744C8.15925 8.81563 7.71413 9 7.25 9H3.75C3.55109 9 3.36032 8.92098 3.21967 8.78033C3.07902 8.63968 3 8.44891 3 8.25C3 8.05109 3.07902 7.86032 3.21967 7.71967C3.36032 7.57902 3.55109 7.5 3.75 7.5H7.25C7.3163 7.5 7.37989 7.47366 7.42678 7.42678C7.47366 7.37989 7.5 7.3163 7.5 7.25V3.75C7.5 3.55109 7.57902 3.36032 7.71967 3.21967C7.86032 3.07902 8.05109 3 8.25 3ZM15.75 3C15.9489 3 16.1397 3.07902 16.2803 3.21967C16.421 3.36032 16.5 3.55109 16.5 3.75V7.25C16.5 7.388 16.612 7.5 16.75 7.5H20.25C20.4489 7.5 20.6397 7.57902 20.7803 7.71967C20.921 7.86032 21 8.05109 21 8.25C21 8.44891 20.921 8.63968 20.7803 8.78033C20.6397 8.92098 20.4489 9 20.25 9H16.75C16.2859 9 15.8408 8.81563 15.5126 8.48744C15.1844 8.15925 15 7.71413 15 7.25V3.75C15 3.55109 15.079 3.36032 15.2197 3.21967C15.3603 3.07902 15.5511 3 15.75 3ZM3 15.75C3 15.5511 3.07902 15.3603 3.21967 15.2197C3.36032 15.079 3.55109 15 3.75 15H7.25C8.216 15 9 15.784 9 16.75V20.25C9 20.4489 8.92098 20.6397 8.78033 20.7803C8.63968 20.921 8.44891 21 8.25 21C8.05109 21 7.86032 20.921 7.71967 20.7803C7.57902 20.6397 7.5 20.4489 7.5 20.25V16.75C7.5 16.6837 7.47366 16.6201 7.42678 16.5732C7.37989 16.5263 7.3163 16.5 7.25 16.5H3.75C3.55109 16.5 3.36032 16.421 3.21967 16.2803C3.07902 16.1397 3 15.9489 3 15.75ZM15 16.75C15 15.784 15.784 15 16.75 15H20.25C20.4489 15 20.6397 15.079 20.7803 15.2197C20.921 15.3603 21 15.5511 21 15.75C21 15.9489 20.921 16.1397 20.7803 16.2803C20.6397 16.421 20.4489 16.5 20.25 16.5H16.75C16.6837 16.5 16.6201 16.5263 16.5732 16.5732C16.5263 16.6201 16.5 16.6837 16.5 16.75V20.25C16.5 20.4489 16.421 20.6397 16.2803 20.7803C16.1397 20.921 15.9489 21 15.75 21C15.5511 21 15.3603 20.921 15.2197 20.7803C15.079 20.6397 15 20.4489 15 20.25V16.75Z" fill="#0B965B"/>
</svg>
