<svg width="32" height="32" viewBox="0 0 32 32" fill="none" xmlns="http://www.w3.org/2000/svg">
<path d="M0.373027 15.7025C0.130482 15.9651 -0.00345467 16.3166 6.77582e-05 16.6812C0.00359018 17.0458 0.144289 17.3944 0.391859 17.6518C0.639428 17.9093 0.974059 18.055 1.32367 18.0577C1.67329 18.0603 2.00991 17.9196 2.26103 17.6659L15.9837 3.30444L29.7064 17.6659C29.8292 17.7989 29.9762 17.9051 30.1387 17.9782C30.3013 18.0513 30.4762 18.0899 30.6532 18.0917C30.8303 18.0936 31.0059 18.0587 31.1698 17.989C31.3338 17.9193 31.4828 17.8163 31.6081 17.6859C31.7335 17.5556 31.8327 17.4004 31.9 17.2297C31.9673 17.0589 32.0012 16.8758 32 16.6912C31.9987 16.5066 31.9622 16.3241 31.8925 16.1543C31.8229 15.9845 31.7215 15.831 31.5944 15.7025L17.0237 0.451052C16.8874 0.308105 16.7253 0.194665 16.5469 0.117258C16.3684 0.03985 16.177 0 15.9837 0C15.7904 0 15.599 0.03985 15.4205 0.117258C15.242 0.194665 15.08 0.308105 14.9437 0.451052L0.373027 15.7025ZM0.373027 29.6107C0.130482 29.8733 -0.00345467 30.2248 6.77582e-05 30.5894C0.00359018 30.954 0.144289 31.3025 0.391859 31.56C0.639428 31.8175 0.974059 31.9632 1.32367 31.9659C1.67329 31.9685 2.00991 31.8278 2.26103 31.5741L15.9837 17.2098L29.7064 31.5741C29.8292 31.7071 29.9762 31.8132 30.1387 31.8864C30.3013 31.9595 30.4762 31.9981 30.6532 31.9999C30.8303 32.0018 31.0059 31.9669 31.1698 31.8972C31.3338 31.8275 31.4828 31.7245 31.6081 31.5941C31.7335 31.4637 31.8327 31.3086 31.9 31.1378C31.9673 30.9671 32.0012 30.784 32 30.5994C31.9987 30.4148 31.9622 30.2322 31.8925 30.0625C31.8229 29.8927 31.7215 29.7391 31.5944 29.6107L17.0237 14.3592C16.8874 14.2163 16.7253 14.1029 16.5469 14.0254C16.3684 13.948 16.177 13.9082 15.9837 13.9082C15.7904 13.9082 15.599 13.948 15.4205 14.0254C15.242 14.1029 15.08 14.2163 14.9437 14.3592L0.373027 29.6107Z" fill="#4F48EC"/>
</svg>
