<svg width="32" height="32" viewBox="0 0 32 32" fill="none" xmlns="http://www.w3.org/2000/svg">
<path d="M31.627 16.2975C31.8695 16.0349 32.0035 15.6834 31.9999 15.3188C31.9964 14.9542 31.8557 14.6056 31.6081 14.3482C31.3606 14.0907 31.0259 13.945 30.6763 13.9423C30.3267 13.9397 29.9901 14.0804 29.739 14.3341L16.0163 28.6956L2.29364 14.3341C2.17082 14.2011 2.02384 14.0949 1.86127 14.0218C1.6987 13.9487 1.5238 13.9101 1.34677 13.9083C1.16973 13.9064 0.994123 13.9413 0.830173 14.011C0.666224 14.0807 0.51722 14.1837 0.391857 14.3141C0.266495 14.4444 0.167282 14.5996 0.10001 14.7703C0.0327377 14.9411 -0.00124741 15.1242 3.43323e-05 15.3088C0.00131798 15.4934 0.0378437 15.6759 0.107483 15.8457C0.177122 16.0155 0.278479 16.169 0.40564 16.2975L14.9763 31.5489C15.1126 31.6919 15.2747 31.8053 15.4531 31.8827C15.6316 31.9601 15.823 32 16.0163 32C16.2096 32 16.401 31.9601 16.5795 31.8827C16.758 31.8053 16.92 31.6919 17.0563 31.5489L31.627 16.2975ZM31.627 2.38931C31.8695 2.1267 32.0035 1.77524 31.9999 1.41064C31.9964 1.04603 31.8557 0.697462 31.6081 0.440001C31.3606 0.182539 31.0259 0.036787 30.6763 0.0341454C30.3267 0.0315037 29.9901 0.17218 29.739 0.425875L16.0163 14.7902L2.29364 0.425875C2.17082 0.292894 2.02384 0.186754 1.86127 0.113647C1.6987 0.0405407 1.5238 0.00192833 1.34677 6.86646e-05C1.16973 -0.00179291 0.994123 0.0331364 0.830173 0.102812C0.666224 0.172487 0.51722 0.275518 0.391857 0.40589C0.266495 0.536261 0.167282 0.691366 0.10001 0.862152C0.0327377 1.03294 -0.00124741 1.21599 3.43323e-05 1.40062C0.00131798 1.58525 0.0378437 1.76776 0.107483 1.93751C0.177122 2.10727 0.278479 2.26085 0.40564 2.38931L14.9763 17.6408C15.1126 17.7837 15.2747 17.8971 15.4531 17.9746C15.6316 18.052 15.823 18.0918 16.0163 18.0918C16.2096 18.0918 16.401 18.052 16.5795 17.9746C16.758 17.8971 16.92 17.7837 17.0563 17.6408L31.627 2.38931Z" fill="#4F48EC" fill-opacity="0.15"/>
</svg>
