<svg width="40" height="48" viewBox="0 0 40 48" fill="none" xmlns="http://www.w3.org/2000/svg">
<path d="M19.6495 0.344423C19.8441 0.153242 20.1559 0.153242 20.3505 0.344423L39.1284 18.7986C39.4476 19.1123 39.2254 19.6552 38.7779 19.6552H31.1667C30.8905 19.6552 30.6667 19.879 30.6667 20.1552V37.5C30.6667 37.7761 30.4428 38 30.1667 38H9.83333C9.55719 38 9.33333 37.7761 9.33333 37.5V20.1552C9.33333 19.879 9.10948 19.6552 8.83333 19.6552H1.22211C0.774555 19.6552 0.552436 19.1123 0.871643 18.7986L19.6495 0.344423Z" fill="#0B965B"/>
<rect x="10" y="41" width="20" height="2" fill="#0B965B"/>
<rect x="10" y="46" width="20" height="2" fill="#0B965B"/>
</svg>
