<svg width="40" height="48" viewBox="0 0 40 48" fill="none" xmlns="http://www.w3.org/2000/svg">
<path d="M20.3505 47.6556C20.1559 47.8468 19.8441 47.8468 19.6495 47.6556L0.871643 29.2014C0.552437 28.8877 0.774555 28.3448 1.22211 28.3448H8.83333C9.10948 28.3448 9.33333 28.121 9.33333 27.8448V10.5C9.33333 10.2239 9.55719 10 9.83333 10L30.1667 10C30.4428 10 30.6667 10.2239 30.6667 10.5L30.6667 27.8448C30.6667 28.121 30.8905 28.3448 31.1667 28.3448H38.7779C39.2254 28.3448 39.4476 28.8877 39.1284 29.2014L20.3505 47.6556Z" fill="#DB3654"/>
<rect x="30" y="7" width="20" height="2" transform="rotate(-180 30 7)" fill="#DB3654"/>
<rect x="30" y="2" width="20" height="2" transform="rotate(-180 30 2)" fill="#DB3654"/>
</svg>
