<svg width="26" height="24" viewBox="0 0 26 24" fill="none" xmlns="http://www.w3.org/2000/svg">
<path fill-rule="evenodd" clip-rule="evenodd" d="M9.7398 5.84306C8.21416 6.10521 7.10266 7.39013 6.92066 8.91875L5.57144 20.3077H20.4286L19.0766 8.90306C18.8964 7.38183 17.7952 6.09967 16.2779 5.83567C14.0029 5.43967 12.1067 5.43598 9.7398 5.84306ZM10.8922 9.8289C10.9165 9.58909 10.8456 9.34931 10.6945 9.16082C10.5433 8.97232 10.3241 8.85006 10.0835 8.82017C9.84287 8.79027 9.60005 8.85511 9.40691 9.00083C9.21377 9.14655 9.08563 9.36158 9.04987 9.59998L8.20951 16.2812C8.19126 16.4029 8.19766 16.527 8.22836 16.6463C8.25906 16.7655 8.31343 16.8774 8.38827 16.9754C8.4631 17.0734 8.5569 17.1556 8.66415 17.217C8.77139 17.2785 8.88992 17.318 9.01275 17.3333C9.13559 17.3486 9.26026 17.3393 9.37942 17.3059C9.49859 17.2726 9.60984 17.2159 9.70665 17.1392C9.80346 17.0625 9.88387 16.9674 9.94314 16.8593C10.0024 16.7513 10.0394 16.6326 10.0518 16.5101L10.8922 9.8289Z" fill="#DB3654"/>
<path fill-rule="evenodd" clip-rule="evenodd" d="M11.583 7.45567C11.9936 7.74546 12.3175 8.14046 12.5202 8.59866C12.723 9.05687 12.797 9.56113 12.7344 10.0578L11.895 16.7391C11.8077 17.4314 11.4716 18.0314 10.985 18.4615H18.3393L17.2324 9.11906C17.1377 8.31598 16.5787 7.76213 15.9584 7.65413C14.4068 7.38459 13.0706 7.31536 11.583 7.45567ZM19.0766 8.90306C18.8964 7.38183 17.7951 6.09967 16.2779 5.83567C14.0029 5.43967 12.1067 5.43598 9.73978 5.84306C8.21414 6.10521 7.10264 7.39013 6.92064 8.91875L5.57142 20.3077H20.4286L19.0766 8.90306ZM10.8921 9.8289L10.0518 16.5101C10.0393 16.6326 10.0024 16.7513 9.94312 16.8593C9.88385 16.9674 9.80344 17.0625 9.70663 17.1392C9.60982 17.2159 9.49857 17.2726 9.3794 17.3059C9.26024 17.3393 9.13557 17.3486 9.01274 17.3333C8.8899 17.318 8.77138 17.2785 8.66413 17.217C8.55689 17.1556 8.46309 17.0734 8.38825 16.9754C8.31341 16.8774 8.25904 16.7655 8.22835 16.6463C8.19765 16.527 8.19124 16.4029 8.2095 16.2812L9.04985 9.59998C9.0623 9.47754 9.09924 9.35882 9.15851 9.25078C9.21779 9.14275 9.29819 9.04758 9.395 8.97089C9.49181 8.89419 9.60307 8.83752 9.72223 8.80419C9.8414 8.77086 9.96606 8.76155 10.0889 8.77682C10.2117 8.79208 10.3303 8.83161 10.4375 8.89307C10.5447 8.95453 10.6385 9.03669 10.7134 9.13471C10.7882 9.23274 10.8426 9.34465 10.8733 9.46386C10.904 9.58308 10.9104 9.70719 10.8921 9.8289ZM21.3571 24H4.64285V22.1538H21.3571V24Z" fill="#DB3654"/>
<path d="M2.78571 12.9231C2.78571 13.2342 2.79964 13.5415 2.8275 13.8462H0V12H2.8275C2.79964 12.3046 2.78571 12.612 2.78571 12.9231ZM4.654 7.06708C4.29587 7.57077 3.98475 8.10592 3.7245 8.66585L1.27771 7.26092L2.20629 5.66215L4.654 7.06708ZM8.7165 3.70154C8.151 3.96277 7.61336 4.27292 7.11007 4.62646L5.69586 2.19323L7.30414 1.27015L8.7165 3.70246V3.70154ZM13 2.76923C12.6871 2.76923 12.3779 2.78308 12.0714 2.81077V0H13.9286V2.81077C13.6198 2.78314 13.31 2.76928 13 2.76923ZM18.8909 4.62646C18.3841 4.27049 17.8458 3.96121 17.2826 3.70246L18.6959 1.27015L20.3041 2.19323L18.8909 4.62646ZM22.2764 8.66492C22.0158 8.1056 21.7043 7.57107 21.346 7.068L23.7937 5.66215L24.7223 7.26092L22.2755 8.66492H22.2764ZM23.2143 12.9231C23.2143 12.612 23.2004 12.3046 23.1725 12H26V13.8462H23.1725C23.2004 13.5415 23.2143 13.2342 23.2143 12.9231Z" fill="#DB3654"/>
</svg>
