<svg width="53" height="77" viewBox="0 0 53 77" fill="none" xmlns="http://www.w3.org/2000/svg">
<path d="M30.2724 2.91921C30.2724 4.53245 28.5863 5.83842 26.5034 5.83842C24.4205 5.83842 22.7344 4.53245 22.7344 2.91921C22.7344 1.30596 24.4205 0 26.5034 0C28.5863 0 30.2724 1.30596 30.2724 2.91921Z" fill="#595959"/>
<path d="M53 74.1216H0V76.3H53V74.1216Z" fill="url(#paint0_linear_112_425)"/>
<path d="M39.5184 3.44604H13.4824V7.81388H39.5184V3.44604Z" fill="url(#paint1_linear_112_425)"/>
<path opacity="0.7" d="M45.0584 13.142H7.94922V71.6633H45.0584V13.142Z" fill="#8FE5FF"/>
<path opacity="0.7" d="M19.858 13.142H11.6753V71.6633H19.858V13.142Z" fill="#EBFDFF"/>
<path opacity="0.7" d="M25.6108 13.142H21.4097V71.6633H25.6108V13.142Z" fill="#EBFDFF"/>
<path opacity="0.7" d="M37.3357 13.142H27.3818V71.6633H37.3357V13.142Z" fill="#EBFDFF"/>
<path opacity="0.7" d="M42.4226 13.142H39.3267V71.6633H42.4226V13.142Z" fill="#EBFDFF"/>
<g style="mix-blend-mode:multiply">
<path d="M45.0583 9.08142H7.82861V16.7965H45.0583V9.08142Z" fill="#AFAFAF"/>
</g>
<g style="mix-blend-mode:multiply">
<path d="M45.0583 64.3433H7.82861V72.0583H45.0583V64.3433Z" fill="#AFAFAF"/>
</g>
<path d="M47.4741 7.02917H5.5332V14.7442H47.4741V7.02917Z" fill="url(#paint2_linear_112_425)"/>
<path d="M47.4741 66.4065H5.5332V74.1215H47.4741V66.4065Z" fill="url(#paint3_linear_112_425)"/>
<path d="M47.4819 69.2987H5.53967L5.53955 14.4314H47.4819V69.3037V69.2987ZM15.6011 17.1634H26.5794H40.043H44.122H9.03677H15.6011Z" fill="url(#paint4_linear_112_425)"/>
<path d="M26.9214 14.8156H26.2129V69.1392H26.9214V14.8156Z" fill="black" fill-opacity="0.3"/>
<defs>
<linearGradient id="paint0_linear_112_425" x1="26.5035" y1="74.1216" x2="26.5035" y2="76.3" gradientUnits="userSpaceOnUse">
<stop stop-color="#A3A3A3"/>
<stop offset="0.04" stop-color="#AAAAAA"/>
<stop offset="0.27" stop-color="#D8D8D8"/>
<stop offset="0.45" stop-color="#F4F4F4"/>
<stop offset="0.55" stop-color="white"/>
<stop offset="1" stop-color="#A3A3A3"/>
</linearGradient>
<linearGradient id="paint1_linear_112_425" x1="13.4824" y1="5.62996" x2="39.5255" y2="5.62996" gradientUnits="userSpaceOnUse">
<stop stop-color="#A3A3A3"/>
<stop offset="0.04" stop-color="#AAAAAA"/>
<stop offset="0.27" stop-color="#D8D8D8"/>
<stop offset="0.45" stop-color="#F4F4F4"/>
<stop offset="0.55" stop-color="white"/>
<stop offset="1" stop-color="#A3A3A3"/>
</linearGradient>
<linearGradient id="paint2_linear_112_425" x1="5.5332" y1="10.8867" x2="47.4741" y2="10.8867" gradientUnits="userSpaceOnUse">
<stop stop-color="#A3A3A3"/>
<stop offset="0.04" stop-color="#AAAAAA"/>
<stop offset="0.27" stop-color="#D8D8D8"/>
<stop offset="0.45" stop-color="#F4F4F4"/>
<stop offset="0.55" stop-color="white"/>
<stop offset="1" stop-color="#A3A3A3"/>
</linearGradient>
<linearGradient id="paint3_linear_112_425" x1="5.5332" y1="70.264" x2="47.4741" y2="70.264" gradientUnits="userSpaceOnUse">
<stop stop-color="#A3A3A3"/>
<stop offset="0.04" stop-color="#AAAAAA"/>
<stop offset="0.27" stop-color="#D8D8D8"/>
<stop offset="0.45" stop-color="#F4F4F4"/>
<stop offset="0.55" stop-color="white"/>
<stop offset="1" stop-color="#A3A3A3"/>
</linearGradient>
<linearGradient id="paint4_linear_112_425" x1="0.589435" y1="64.7083" x2="45.8595" y2="12.8668" gradientUnits="userSpaceOnUse">
<stop stop-color="#A3A3A3"/>
<stop offset="1" stop-color="#A3A3A3"/>
</linearGradient>
</defs>
</svg>
