<svg width="18" height="18" viewBox="0 0 18 18" fill="#000000" xmlns="http://www.w3.org/2000/svg">
    <path fill-rule="evenodd" clip-rule="evenodd"
        d="M6.1875 2.25C6.33668 2.25 6.47976 2.30926 6.58525 2.41475C6.69074 2.52024 6.75 2.66332 6.75 2.8125V5.4375C6.75 5.7856 6.61172 6.11944 6.36558 6.36558C6.11944 6.61172 5.7856 6.75 5.4375 6.75H2.8125C2.66332 6.75 2.52024 6.69074 2.41475 6.58525C2.30926 6.47976 2.25 6.33668 2.25 6.1875C2.25 6.03832 2.30926 5.89524 2.41475 5.78975C2.52024 5.68426 2.66332 5.625 2.8125 5.625H5.4375C5.48723 5.625 5.53492 5.60525 5.57008 5.57008C5.60525 5.53492 5.625 5.48723 5.625 5.4375V2.8125C5.625 2.66332 5.68426 2.52024 5.78975 2.41475C5.89524 2.30926 6.03832 2.25 6.1875 2.25ZM11.8125 2.25C11.9617 2.25 12.1048 2.30926 12.2102 2.41475C12.3157 2.52024 12.375 2.66332 12.375 2.8125V5.4375C12.375 5.541 12.459 5.625 12.5625 5.625H15.1875C15.3367 5.625 15.4798 5.68426 15.5852 5.78975C15.6907 5.89524 15.75 6.03832 15.75 6.1875C15.75 6.33668 15.6907 6.47976 15.5852 6.58525C15.4798 6.69074 15.3367 6.75 15.1875 6.75H12.5625C12.2144 6.75 11.8806 6.61172 11.6344 6.36558C11.3883 6.11944 11.25 5.7856 11.25 5.4375V2.8125C11.25 2.66332 11.3093 2.52024 11.4148 2.41475C11.5202 2.30926 11.6633 2.25 11.8125 2.25ZM2.25 11.8125C2.25 11.6633 2.30926 11.5202 2.41475 11.4148C2.52024 11.3093 2.66332 11.25 2.8125 11.25H5.4375C6.162 11.25 6.75 11.838 6.75 12.5625V15.1875C6.75 15.3367 6.69074 15.4798 6.58525 15.5852C6.47976 15.6907 6.33668 15.75 6.1875 15.75C6.03832 15.75 5.89524 15.6907 5.78975 15.5852C5.68426 15.4798 5.625 15.3367 5.625 15.1875V12.5625C5.625 12.5128 5.60525 12.4651 5.57008 12.4299C5.53492 12.3948 5.48723 12.375 5.4375 12.375H2.8125C2.66332 12.375 2.52024 12.3157 2.41475 12.2102C2.30926 12.1048 2.25 11.9617 2.25 11.8125V11.8125ZM11.25 12.5625C11.25 11.838 11.838 11.25 12.5625 11.25H15.1875C15.3367 11.25 15.4798 11.3093 15.5852 11.4148C15.6907 11.5202 15.75 11.6633 15.75 11.8125C15.75 11.9617 15.6907 12.1048 15.5852 12.2102C15.4798 12.3157 15.3367 12.375 15.1875 12.375H12.5625C12.5128 12.375 12.4651 12.3948 12.4299 12.4299C12.3948 12.4651 12.375 12.5128 12.375 12.5625V15.1875C12.375 15.3367 12.3157 15.4798 12.2102 15.5852C12.1048 15.6907 11.9617 15.75 11.8125 15.75C11.6633 15.75 11.5202 15.6907 11.4148 15.5852C11.3093 15.4798 11.25 15.3367 11.25 15.1875V12.5625Z"
        fill="#000000" />
</svg>