<svg width="18" height="18" viewBox="0 0 18 18" fill="none" xmlns="http://www.w3.org/2000/svg">
<path d="M3.75 15.75C3.5663 15.75 3.389 15.6825 3.25172 15.5604C3.11444 15.4384 3.02674 15.2702 3.00525 15.0877L3 15V8.24998H0.75L8.49525 1.20898C8.6211 1.09445 8.78217 1.02612 8.95199 1.01521C9.1218 1.00431 9.29028 1.05148 9.42975 1.14898L9.50475 1.20898L17.25 8.24998H15V15C15 15.1837 14.9325 15.361 14.8105 15.4983C14.6884 15.6355 14.5202 15.7232 14.3378 15.7447L14.25 15.75H3.75ZM9 2.77648L4.5 6.86698V14.25H7.76775L8.8125 13.125L6 10.5L9.75 8.24998L7.875 6.74998L10.125 4.49998L9.75 6.74998L11.625 8.24998L8.625 10.5L11.25 12.75L10.3125 14.25H13.5V6.86773L9 2.77648V2.77648Z" fill="black"/>
</svg>
