<svg width="18" height="18" viewBox="0 0 18 18" fill="none" xmlns="http://www.w3.org/2000/svg">
<g clip-path="url(#clip0_154_2117)">
<path d="M0.909 0L0 0.909L1.60131 3.67823L2.63977 3.52592L8.97854 9.86538L8.43785 10.3846C8.16092 10.6615 8.16092 11.0811 8.43785 11.358L8.71892 11.6398C8.99585 11.9167 9.41954 11.9167 9.62723 11.6398L10.4497 12.4615C10.3805 12.8769 10.4497 13.3705 10.7958 13.7167L14.5385 17.4378C15.3 18.1994 16.5462 18.1994 17.3077 17.4378C18.2077 16.6071 18.1994 15.3651 17.4378 14.6035L13.7167 10.8602C13.3705 10.5141 12.8769 10.3756 12.4615 10.5141L11.5525 9.69231C11.7602 9.41538 11.7602 8.99169 11.5525 8.78331L11.2929 8.52438C11.23 8.45875 11.1544 8.40653 11.0708 8.37086C10.9872 8.33518 10.8972 8.31679 10.8062 8.31679C10.7153 8.31679 10.6253 8.33518 10.5417 8.37086C10.458 8.40653 10.3825 8.45875 10.3195 8.52438L9.86538 8.97854L3.52662 2.63977L3.67754 1.60131L0.908308 0L0.909 0ZM14.409 0.0214615C13.0431 -0.0920769 11.232 0.813462 10.3846 1.60062C9.342 2.64323 9.51231 4.00638 10.341 5.32246L8.87054 6.79362L9.909 7.96154C10.4628 7.47692 11.2798 7.47692 11.8336 7.96154L12.1154 8.24262L12.1805 8.30769L12.7862 7.70192C14.0379 8.43785 15.3408 8.54377 16.3343 7.55031C17.3035 6.65031 18.3545 4.43077 17.8698 3.11538L15.9231 5.12723C15.6462 5.40415 15.2266 5.40415 14.9497 5.12723L12.9372 3.11538C12.8715 3.05245 12.8193 2.97689 12.7836 2.89325C12.748 2.80961 12.7296 2.71962 12.7296 2.62869C12.7296 2.53776 12.748 2.44777 12.7836 2.36413C12.8193 2.2805 12.8715 2.20494 12.9372 2.142L14.9504 0.130154C14.7773 0.0692308 14.6042 0.0380769 14.409 0.0214615ZM6.79362 8.65385L4.28331 11.1635C4.01356 11.1035 3.73786 11.0745 3.46154 11.0769C1.52308 11.0769 0 12.6 0 14.5385C0 16.4769 1.52308 18 3.46154 18C5.4 18 6.92308 16.4769 6.92308 14.5385C6.92308 14.1833 6.867 13.842 6.77146 13.5215L8.24262 12.0503L8.02662 11.7692C7.47277 11.2154 7.47692 10.3763 7.96154 9.82177L6.79292 8.65385H6.79362ZM12.159 11.8128C12.2455 11.8128 12.3272 11.8295 12.3965 11.8994L16.4859 15.9882C16.6244 16.1266 16.6244 16.3468 16.4859 16.4852C16.3475 16.6237 16.1259 16.6237 15.9875 16.4852L11.8994 12.3965C11.7609 12.258 11.7609 12.0378 11.8994 11.8994C11.9686 11.8302 12.0725 11.8128 12.159 11.8128ZM3.93785 12.7419L5.25738 14.0622L4.78108 15.8573L2.98592 16.3336L1.66569 15.0134L2.142 13.2182L3.93785 12.7419V12.7419Z" fill="black"/>
</g>
<defs>
<clipPath id="clip0_154_2117">
<rect width="18" height="18" fill="white"/>
</clipPath>
</defs>
</svg>
