<svg width="18" height="18" viewBox="0 0 18 18" fill="none" xmlns="http://www.w3.org/2000/svg">
<path d="M6 8.25C6.79565 8.25 7.55871 7.93393 8.12132 7.37132C8.68393 6.80871 9 6.04565 9 5.25C9 4.45435 8.68393 3.69129 8.12132 3.12868C7.55871 2.56607 6.79565 2.25 6 2.25C5.20435 2.25 4.44129 2.56607 3.87868 3.12868C3.31607 3.69129 3 4.45435 3 5.25C3 6.04565 3.31607 6.80871 3.87868 7.37132C4.44129 7.93393 5.20435 8.25 6 8.25V8.25ZM12.75 8.25C13.3467 8.25 13.919 8.01295 14.341 7.59099C14.7629 7.16903 15 6.59674 15 6C15 5.40326 14.7629 4.83097 14.341 4.40901C13.919 3.98705 13.3467 3.75 12.75 3.75C12.1533 3.75 11.581 3.98705 11.159 4.40901C10.7371 4.83097 10.5 5.40326 10.5 6C10.5 6.59674 10.7371 7.16903 11.159 7.59099C11.581 8.01295 12.1533 8.25 12.75 8.25ZM3.1875 9.75C2.73995 9.75 2.31072 9.92779 1.99426 10.2443C1.67779 10.5607 1.5 10.9899 1.5 11.4375V11.625C1.5 11.625 1.5 15 6 15C7.0425 15 7.8435 14.8192 8.4585 14.5402C8.31979 14.0813 8.24953 13.6044 8.25 13.125C8.25 11.8823 8.715 10.7482 9.48 9.88725C9.26919 9.79644 9.04203 9.74973 8.8125 9.75H3.1875ZM17.25 13.125C17.25 14.219 16.8154 15.2682 16.0418 16.0418C15.2682 16.8154 14.219 17.25 13.125 17.25C12.031 17.25 10.9818 16.8154 10.2082 16.0418C9.4346 15.2682 9 14.219 9 13.125C9 12.031 9.4346 10.9818 10.2082 10.2082C10.9818 9.4346 12.031 9 13.125 9C14.219 9 15.2682 9.4346 16.0418 10.2082C16.8154 10.9818 17.25 12.031 17.25 13.125V13.125ZM15.1095 11.3595L12.375 14.0947L11.1405 12.8595C11.0701 12.7891 10.9746 12.7495 10.875 12.7495C10.7754 12.7495 10.6799 12.7891 10.6095 12.8595C10.5391 12.9299 10.4995 13.0254 10.4995 13.125C10.4995 13.2246 10.5391 13.3201 10.6095 13.3905L12.1095 14.8905C12.1443 14.9254 12.1857 14.9531 12.2313 14.972C12.2768 14.9909 12.3257 15.0007 12.375 15.0007C12.4243 15.0007 12.4732 14.9909 12.5187 14.972C12.5643 14.9531 12.6057 14.9254 12.6405 14.8905L15.6405 11.8905C15.7109 11.8201 15.7505 11.7246 15.7505 11.625C15.7505 11.5254 15.7109 11.4299 15.6405 11.3595C15.5701 11.2891 15.4746 11.2495 15.375 11.2495C15.2754 11.2495 15.1799 11.2891 15.1095 11.3595V11.3595Z" fill="black"/>
</svg>
