<svg width="18" height="18" viewBox="0 0 18 18" fill="none" xmlns="http://www.w3.org/2000/svg">
<path d="M9 2.25C8.27325 2.25 7.65338 2.72475 7.41769 3.375H6.75C5.20594 3.375 3.9375 4.64344 3.9375 6.1875H5.0625C5.0625 5.25656 5.81906 4.5 6.75 4.5H7.3125V5.88938C7.1325 6.02269 6.90019 6.21281 6.62625 6.48562C6.16162 6.9525 5.625 7.59375 5.625 8.4375V15.75H12.375V8.4375C12.375 7.59375 11.8389 6.9525 11.3737 6.48562C11.0998 6.21281 10.8675 6.02269 10.6875 5.88938V5.73019L13.4122 6.1875L14.0625 6.29325V2.70675L13.4122 2.8125L10.5469 3.28725C10.2892 2.68312 9.69412 2.25 9 2.25ZM9 3.375C9.31219 3.375 9.5625 3.62531 9.5625 3.9375V5.625H8.4375V3.9375C8.4375 3.62531 8.68781 3.375 9 3.375ZM12.9375 4.04325V4.95731L10.6875 4.57031V4.42969L12.9375 4.04269V4.04325ZM8.08594 6.75H9.91406C9.99844 6.80906 10.2392 6.96938 10.5643 7.29563C10.9429 7.6725 11.2506 8.15625 11.2506 8.4375V14.625H6.75056V8.4375C6.75056 8.15625 7.05825 7.6725 7.43681 7.29563C7.76137 6.96938 8.00156 6.80906 8.0865 6.75H8.08594ZM7.875 9.5625V10.6875H10.125V9.5625H7.875Z" fill="black"/>
</svg>
