<svg width="18" height="18" viewBox="0 0 18 18" fill="none" xmlns="http://www.w3.org/2000/svg">
<path d="M2.95996 1C2.82735 1 2.70018 1.05268 2.60641 1.14645C2.51264 1.24021 2.45996 1.36739 2.45996 1.5V16.5C2.45996 16.6326 2.51264 16.7598 2.60641 16.8536C2.70018 16.9473 2.82735 17 2.95996 17C3.09257 17 3.21975 16.9473 3.31351 16.8536C3.40728 16.7598 3.45996 16.6326 3.45996 16.5V1.5C3.45996 1.36739 3.40728 1.24021 3.31351 1.14645C3.21975 1.05268 3.09257 1 2.95996 1V1Z" fill="black"/>
<path d="M15.25 1.91C15.174 1.86612 15.0878 1.84301 15 1.84301C14.9122 1.84301 14.826 1.86612 14.75 1.91C13.7807 2.31746 12.7361 2.51512 11.685 2.49C10.7794 2.42374 9.89741 2.17004 9.095 1.745C8.32328 1.32806 7.47398 1.07446 6.6 1C5.87872 1.00079 5.16483 1.14527 4.5 1.425V10C5.15142 9.64357 5.88245 9.45781 6.625 9.46C7.36032 9.53295 8.07398 9.75045 8.725 10.1C9.65507 10.5857 10.6776 10.8686 11.725 10.93C12.9273 10.955 14.1209 10.7214 15.225 10.245C15.3075 10.2034 15.3768 10.1399 15.4253 10.0613C15.4739 9.98279 15.4997 9.89233 15.5 9.8V2.335C15.4986 2.24859 15.4748 2.16403 15.431 2.08954C15.3872 2.01505 15.3248 1.9532 15.25 1.91V1.91Z" fill="black"/>
</svg>
