<svg width="18" height="16" viewBox="0 0 18 16" fill="none" xmlns="http://www.w3.org/2000/svg">
<path fill-rule="evenodd" clip-rule="evenodd" d="M6.74321 3.89537C5.68699 4.07014 4.91749 4.92676 4.79149 5.94583L3.85742 13.5384H14.1431L13.2071 5.93537C13.0824 4.92122 12.32 4.06645 11.2696 3.89045C9.69456 3.62645 8.38185 3.62399 6.74321 3.89537ZM7.54099 6.5526C7.55787 6.39273 7.50874 6.23288 7.40413 6.10721C7.29951 5.98155 7.14769 5.90004 6.98113 5.88011C6.81456 5.86018 6.64646 5.90341 6.51275 6.00055C6.37904 6.0977 6.29032 6.24105 6.26556 6.39999L5.68378 10.8541C5.67114 10.9353 5.67558 11.018 5.69683 11.0975C5.71808 11.177 5.75572 11.2516 5.80753 11.3169C5.85934 11.3823 5.92428 11.4371 5.99853 11.478C6.07277 11.519 6.15483 11.5454 6.23987 11.5555C6.32491 11.5657 6.41122 11.5595 6.49371 11.5373C6.57621 11.5151 6.65324 11.4773 6.72026 11.4261C6.78728 11.375 6.84295 11.3116 6.88398 11.2396C6.92502 11.1675 6.95059 11.0884 6.95921 11.0068L7.54099 6.5526V6.5526Z" fill="black"/>
<path fill-rule="evenodd" clip-rule="evenodd" d="M8.01858 4.97045C8.30284 5.16364 8.52707 5.42697 8.66744 5.73244C8.8078 6.03791 8.85905 6.37409 8.81572 6.70522L8.23458 11.1594C8.17415 11.6209 7.94144 12.0209 7.60458 12.3077H12.696L11.9297 6.07937C11.8642 5.54399 11.4772 5.17475 11.0477 5.10275C9.97351 4.92306 9.04844 4.87691 8.01858 4.97045V4.97045ZM13.2064 5.93537C13.0817 4.92122 12.3193 4.06645 11.2689 3.89045C9.69387 3.62645 8.38115 3.62399 6.74251 3.89537C5.6863 4.07014 4.9168 4.92676 4.7908 5.94583L3.85672 13.5384H14.1424L13.2064 5.93537V5.93537ZM7.5403 6.5526L6.95851 11.0068C6.9499 11.0884 6.92432 11.1675 6.88328 11.2396C6.84225 11.3116 6.78658 11.375 6.71956 11.4261C6.65254 11.4773 6.57552 11.5151 6.49302 11.5373C6.41052 11.5595 6.32421 11.5657 6.23917 11.5555C6.15413 11.5454 6.07208 11.519 5.99783 11.478C5.92358 11.4371 5.85864 11.3823 5.80683 11.3169C5.75502 11.2516 5.71738 11.177 5.69613 11.0975C5.67488 11.018 5.67044 10.9353 5.68308 10.8541L6.26487 6.39999C6.27348 6.31836 6.29906 6.23921 6.34009 6.16719C6.38113 6.09516 6.43679 6.03172 6.50382 5.98059C6.57084 5.92946 6.64786 5.89168 6.73036 5.86946C6.81286 5.84724 6.89916 5.84103 6.9842 5.85121C7.06924 5.86139 7.1513 5.88774 7.22555 5.92871C7.29979 5.96969 7.36473 6.02446 7.41654 6.08981C7.46835 6.15516 7.50599 6.22976 7.52725 6.30924C7.5485 6.38872 7.55293 6.47146 7.5403 6.5526V6.5526ZM14.7853 16H3.21387V14.7692H14.7853V16Z" fill="black"/>
<path d="M1.92857 8.61539C1.92857 8.82277 1.93821 9.02769 1.9575 9.23077H0V8H1.9575C1.93821 8.20308 1.92857 8.408 1.92857 8.61539ZM3.222 4.71139C2.97407 5.04718 2.75867 5.40395 2.5785 5.77723L0.884572 4.84062L1.52743 3.77477L3.222 4.71139ZM6.0345 2.46769C5.643 2.64185 5.27079 2.84862 4.92236 3.08431L3.94329 1.46215L5.05671 0.84677L6.0345 2.46831V2.46769ZM9 1.84615C8.78336 1.84615 8.56929 1.85538 8.35714 1.87385V0H9.64286V1.87385C9.42911 1.85542 9.21461 1.84618 9 1.84615V1.84615ZM13.0783 3.08431C12.7275 2.847 12.3548 2.64081 11.9649 2.46831L12.9433 0.84677L14.0567 1.46215L13.0783 3.08431ZM15.4221 5.77662C15.2417 5.40373 15.0261 5.04738 14.778 4.712L16.4726 3.77477L17.1154 4.84062L15.4215 5.77662H15.4221ZM16.0714 8.61539C16.0714 8.408 16.0618 8.20308 16.0425 8H18V9.23077H16.0425C16.0618 9.02769 16.0714 8.82277 16.0714 8.61539Z" fill="black"/>
</svg>
